<?xml version="1.0" encoding="UTF-8" standalone="no"?>
<svg width="376px" height="461px" viewBox="0 0 376 461" version="1.1" xmlns="http://www.w3.org/2000/svg" xmlns:xlink="http://www.w3.org/1999/xlink">
    <!-- Generator: Sketch 47.1 (45422) - http://www.bohemiancoding.com/sketch -->
    <title>Gopher</title>
    <desc>Created with Sketch.</desc>
    <defs>
        <path d="M26.2538192,53.605625 C44.1162786,48.798125 85.0316722,48.798125 149,53.605625 L149,105.055114 C85.5548891,108.981629 44.6394955,108.981629 26.2538192,105.055114 C-1.32469512,99.1653423 0.285089511,82.8081435 0,79.6289392 C0.278633552,76.9838677 -0.539869768,60.816875 26.2538192,53.605625 Z" id="path-1"></path>
        <path d="M27.8188349,58.7899884 C42.2047082,54.8942557 76.2916187,54.8584524 130.079567,58.6825786 L130.079567,100.374406 C76.7130015,103.627843 42.6260909,103.663647 27.8188349,100.481816 C5.60795086,95.7090697 6.9044217,82.4540983 6.67481941,79.8778465 C6.89922227,77.7344265 6.24002497,64.6335876 27.8188349,58.7899884 Z" id="path-2"></path>
        <path d="M154.594399,110.872609 C215.174549,110.687397 229.362678,114.638748 234.94259,89.7311861 C237.193756,53.8443826 172.595789,40 154.594399,40 C136.59301,40 122,55.8653739 122,75.4363043 C122,95.0072348 136.59301,110.872609 154.594399,110.872609 Z" id="path-3"></path>
    </defs>
    <g id="Page-1" stroke="none" stroke-width="1" fill="none" fill-rule="evenodd">
        <g id="Gopher" transform="translate(-4.000000, 2.000000)">
            <path d="M40.9456384,254.113891 C40.9456384,254.113891 52.4556384,254.523891 62.4356384,250.333891 C72.4156384,246.143891 86.0856384,242.333891 83.8256384,227.753891 C82.4356384,218.753891 60.9056384,223.403891 60.9056384,223.403891 C60.9056384,223.403891 45.1356384,229.203891 34.6356384,228.613891" id="Hand_1" stroke="#000000" stroke-width="3" fill="#F4D5B8" fill-rule="nonzero" transform="translate(59.354627, 238.163919) scale(-1, 1) translate(-59.354627, -238.163919) "></path>
            <path d="M158.174162,59.5838911 C158.174162,59.5838911 158.424162,33.3338911 172.424162,33.5838911 C186.424162,33.8338911 180.674162,64.0838911 180.674162,64.0838911" id="Ear_1" stroke="#000000" stroke-width="3" fill="#EE4A73" fill-rule="nonzero" transform="translate(170.008889, 48.833004) scale(-1, 1) translate(-170.008889, -48.833004) "></path>
            <path d="M142.588485,423.413891 C142.588485,423.413891 162.338485,457.533891 172.958485,450.853891 C183.578485,444.173891 159.268485,415.373891 159.268485,415.373891" id="Leg_1" stroke="#000000" stroke-width="3" fill="#F4D5B8" fill-rule="nonzero" transform="translate(159.116051, 433.547315) scale(-1, 1) translate(-159.116051, -433.547315) "></path>
            <path d="M369.915692,353.823891 C356.665692,352.323891 356.665692,350.573891 349.915692,352.323891 C343.165692,354.073891 324.915692,365.323891 331.915692,370.573891 C338.915692,375.823891 339.665692,377.573891 348.915692,376.073891 C358.165692,374.573891 377.415692,370.323891 377.415692,370.323891" id="Tail" stroke="#000000" stroke-width="3" fill="#F6D8BC" fill-rule="nonzero" transform="translate(353.879654, 364.091341) scale(-1, 1) rotate(9.000000) translate(-353.879654, -364.091341) "></path>
            <g id="Eye_R" transform="translate(70.903616, 140.023891) scale(-1, 1) translate(-70.903616, -140.023891) translate(23.903616, 95.023891)" fill-rule="nonzero">
                <ellipse id="Oval" fill="#FFFFFF" cx="46.87" cy="45.21" rx="45.3" ry="43"></ellipse>
                <path d="M90.67,45.21 C90.28,69.03 70.04,86.37 46.87,86.71 C23.7,87.05 3.45,68.52 3.07,45.21 C2.68,21.39 24.3,4.04 46.87,3.71 C70.04,3.37 90.29,21.9 90.67,45.21 C90.67,47.14 93.67,47.15 93.67,45.21 C93.32,23.73 77.72,6.42 57.07,1.77 C36.21,-2.92 13.96,7.47 4.37,26.53 C-5.13,45.42 1.84,67.75 18.07,80.28 C34.92,93.28 60.6,92.68 77,79.28 C87.3364075,70.989658 93.4460734,58.5284319 93.67,45.28 C93.7,43.28 90.7,43.28 90.67,45.21 Z" id="Shape" fill="#000000"></path>
                <ellipse id="Oval" stroke="#1D1D1B" fill="#000000" cx="80.51" cy="44.73" rx="11.67" ry="11.34"></ellipse>
                <ellipse id="Oval" stroke="#1D1D1B" fill="#FFFFFF" cx="79.63" cy="43.88" rx="3.71" ry="3.69"></ellipse>
            </g>
            <path d="M95.3693302,146.583891 C96.2793302,133.583891 117.36933,88.5838911 153.36933,72.5838911 C189.36933,56.5838911 203.36933,56.5838911 238.36933,53.5838911 C273.36933,50.5838911 326.36933,81.5838911 336.36933,94.5838911 C346.36933,107.583891 353.36933,119.383891 355.36933,136.983891 C357.36933,154.583891 357.36933,162.583891 360.36933,180.583891 C363.36933,198.583891 359.36933,267.583891 348.36933,293.583891 C341.09933,310.773891 329.88933,353.323891 305.48933,386.583891 C292.98933,403.583891 277.02933,418.173891 256.36933,425.583891 C195.36933,447.583891 159.36933,434.943891 150.36933,434.583891 C124.46933,433.583891 119.09933,426.113891 89.3693302,390.583891 C71.3693302,369.083891 68.5093302,343.343891 68.5093302,325.333891 C68.5093302,303.463891 98.5093302,251.583891 99.5093302,221.583891 C101.27933,168.223891 92.8993302,181.913891 95.3693302,146.583891 Z" id="Body" stroke="#000000" stroke-width="3" fill="#EE4A73" fill-rule="nonzero" transform="translate(214.921473, 245.951141) scale(-1, 1) translate(-214.921473, -245.951141) "></path>
            <g id="Leg_2" transform="translate(293.903616, 437.523891) scale(-1, 1) translate(-293.903616, -437.523891) translate(278.903616, 418.023891)" stroke="#000000" stroke-width="3" fill-rule="nonzero">
                <path d="M4.06,5.09 C4.06,5.09 -6.44,36.84 9.56,38.59 C25.56,40.34 27.06,9.34 27.06,9.34" id="Shape" fill="#F4D5B8"></path>
                <path d="M0.83,0.72 C0.83,0.72 3.19,12.6 8.07,15.72 C8.07,15.72 8.95,7.22 9.78,6.89 C10.61,6.56 21.95,15.89 20.28,17.22 C18.61,18.55 29.97,11.32 29.96,8.02" id="Shape" fill="#EE4A73"></path>
            </g>
            <path d="M93.0008027,406.563891 C72.3308027,395.453891 71.8608027,378.813891 88.0008027,358.113891 C99.8708027,342.903891 113.330803,327.783891 120.730803,284.113891 C124.660803,260.903891 147.550803,233.543891 168.730803,235.113891 C189.910803,236.683891 199.940803,259.273891 192.160803,280.863891 C184.380803,302.453891 156.100803,385.393891 135.710803,396.113891 C135.710803,396.113891 111.790803,416.673891 93.0008027,406.563891 Z" id="Belly" fill="#F194AA" fill-rule="nonzero" transform="translate(135.702209, 322.204539) scale(-1, 1) translate(-135.702209, -322.204539) "></path>
            <g id="Eye_L" transform="translate(183.403616, 151.023891) scale(-1, 1) translate(-183.403616, -151.023891) translate(126.903616, 98.023891)" fill-rule="nonzero">
                <ellipse id="Oval" fill="#FFFFFF" cx="56.7" cy="52.56" rx="54.47" ry="51"></ellipse>
                <path d="M109.67,52.56 C109.32,77.56 90.17,96.83 66.25,101.27 C41.83,105.79 15.83,92.35 6.72,69.01 C-2.28,45.84 9.72,20.82 30.72,9.39 C52.72,-2.55 81.19,2.86 97.72,21.3 C105.32066,29.9468389 109.54296,41.0476862 109.61,52.56 C109.61,53.3884271 110.281573,54.06 111.11,54.06 C111.938427,54.06 112.61,53.3884271 112.61,52.56 C112.31,31.09 98.77,12.82 79.23,4.56 C59.23,-3.92 35.63,-0.01 19.02,13.73 C2.73973406,27.4153281 -3.31772954,49.7788935 3.83,69.81 C10.99,89.81 30.42,102.51 50.96,104.81 C82.15,108.26 112.23,84.55 112.67,52.59 C112.678284,51.7615729 112.013427,51.0832843 111.185,51.075 C110.356573,51.0667157 109.678284,51.7315729 109.67,52.56 Z" id="Shape" fill="#1D1D1B"></path>
                <ellipse id="Oval" stroke="#1D1D1B" fill="#000000" cx="72.57" cy="45.22" rx="17.67" ry="16"></ellipse>
                <ellipse id="Oval" stroke="#1D1D1B" fill="#FFFFFF" cx="67.9" cy="40.57" rx="4.67" ry="4.65"></ellipse>
            </g>
            <g id="Ear_2" transform="translate(288.903616, 76.023891) scale(-1, 1) translate(-288.903616, -76.023891) translate(263.903616, 51.023891)" fill-rule="nonzero">
                <path d="M23.56,49.56 L3.89,24.56 C3.89,24.56 -5.94,8.65 9.39,2.36 C24.72,-3.93 35.22,8.23 36.06,9.36 C36.9,10.49 49.23,29.19 49.23,29.19" id="Shape" stroke="#000000" stroke-width="3" fill="#EE4A73"></path>
                <path d="M21.06,17.72 C21.06,17.72 20.96,26.72 25.01,30.72 C29.06,34.72 32.73,37.55 34.73,36.05 C36.73,34.55 31.23,23.55 28.9,22.22 C26.57,20.89 25.06,17.22 21.06,17.72 Z" id="Shape" fill="#030405"></path>
                <path d="M19.56,17.72 C19.56,22.21 20.42,27.22 23.16,30.87 C24.5,32.66 33.79,41.87 36.22,36.59 C37.94,32.87 34.43,27.31 32.55,24.26 C31.36,22.33 29.9,21.33 28.3,19.82 C26.08,17.72 24.3,16.07 21.05,16.22 C19.12,16.31 19.11,19.31 21.05,19.22 C23.82,19.1 27.51,22.45 29.21,24.68 C31.1734992,27.3421081 32.6155321,30.3517157 33.46,33.55 C34.3,36.7 29.71,32.97 29,32.39 C26.7486307,30.756144 24.9798028,28.5451092 23.88,25.99 C22.9364707,23.3371589 22.4824407,20.5350489 22.54,17.72 C22.4522127,16.9635464 21.8115304,16.3929162 21.05,16.3929162 C20.2884696,16.3929162 19.6477873,16.9635464 19.56,17.72 Z" id="Shape" fill="#1D1D1B"></path>
            </g>
            <g id="Vest" transform="translate(65.000000, 211.000000)">
                <path d="M25.2342784,165.128969 C18.5584418,134.137608 13.6686801,110.591012 9.89711057,91.5999563 C8.11571829,82.6300778 4.88802181,65.7889979 4.53673173,64.085267 C2.78542002,55.5915345 1.69578913,43.7561626 -0.643714165,10.4687855 L-0.81289072,8.06167463 L1.42051692,8.97529036 C2.12529766,9.26359364 2.78592129,9.52837062 3.41327039,9.77360395 L4.1856798,10.075542 L4.34071354,10.8902489 C17.6398944,80.7778419 36.5980046,137.063468 56.9374209,172.488188 L58.1054929,174.522594 L55.7687226,174.729241 C44.2779626,175.745403 34.2466922,172.825744 25.7590045,165.980711 L25.3460053,165.647641 L25.2342784,165.128969 Z" id="Vest_2-Copy" stroke="#000000" stroke-width="3"></path>
                <path d="M54.1635525,173.492072 C44.6585708,174.850653 35.5042678,171.957662 26.7006435,164.8131 C11.4637347,94.0785134 7.94978041,73.2103798 6.00582834,63.7823558 C4.06187628,54.3543319 2.80630973,38.1618493 0.852594834,10.3636219 C6.00582834,12.4716451 10.2649099,13.9242762 13.3095253,13.9242762 C14.5850055,13.9242762 14.4761653,14.3815441 14.5931822,14.8702735 C27.289247,64.4967477 52.3092966,146.61708 54.1635525,157.504674 C57.1180711,167.364343 57.9209528,167.830358 58.6896477,172.184137 C57.9209528,172.885355 56.5406714,173.155282 54.1635525,173.492072 Z" id="Vest_2" fill="#FFA03D"></path>
                <polygon id="Stripe_4" fill="#DEFF3C" points="21.1594802 138.912594 51.0443955 145.136249 53.3572792 154.052874 22.2819035 144.18984"></polygon>
                <path d="M14.4316792,106.619155 C8.66932995,77.9960244 5.30919387,60.7003199 4.35127099,54.7320408 C4.13957364,52.4684473 3.91186019,49.5872009 3.66813064,46.0883017 C9.60631168,68.8302002 14.9563022,89.4768393 19.7181022,108.028219 C21.5410841,108.667009 28.9205456,110.105427 41.8564869,112.343473 L43.9816914,120.450151 L16.0695511,114.383193 L14.4316792,106.619155 Z" id="Stripe_3" fill="#DEFF3C"></path>
                <path d="M266.220663,0.584209052 C266.831635,0.412334698 266.916524,0.386134774 268.333666,-0.0595608446 C269.197526,-0.331247539 269.762525,-0.49886553 270.425853,-0.672497869 L272.436665,-1.19884683 L272.30257,0.875382393 C271.853532,7.821265 273.305131,16.3189737 276.549367,27.1146637 C278.955004,35.1197843 280.456825,39.2481131 287.789036,58.6567691 C289.860778,64.1407555 291.275805,67.9515376 292.647508,71.7807048 C298.967174,89.4223094 302.429353,102.501434 303.331861,114.381212 C303.996673,126.0943 300.714739,145.836177 293.50061,173.706796 L293.220671,174.788293 L279.188866,175.310991 L280.113614,173.136953 C286.458764,158.21982 286.185347,131.122726 280.839612,93.5983112 C279.300198,82.7923898 277.389389,71.4222774 275.007669,58.5515817 C273.408937,49.9121146 268.490102,24.6422996 268.146117,22.8205054 C265.990734,11.4053214 265.05382,5.20921042 265.127256,1.9939115 L265.152591,0.884671474 L266.220663,0.584209052 Z" id="Rectangle-5-Copy" stroke="#000000" stroke-width="3"></path>
                <path d="M90.2490188,19.5869402 C90.6894363,19.6227481 90.6026653,19.655009 91.0321467,19.6839866 C99.3449743,20.244862 104.267425,19.424371 111.35034,19.4356553 C176.860427,19.5400246 245.603827,7.37543799 270.805695,0.778612152 C268.955351,29.4003631 299,77.1698982 301.834271,114.466212 C302.487806,125.980611 299.225872,145.602179 292.048468,173.330918 L91.3614036,180.806701 C80.7033018,174.105648 75.2935238,166.47864 75.1320698,157.925678 C78.4710671,133.104414 86.9035229,69.7798626 88.2817424,21.5735848 C88.2584201,20.5371273 89.5272854,19.4356553 90.2490188,19.5869402 Z" id="Vest_1" fill="#FFA03D"></path>
                <path d="M299.940333,137.901453 C297.269272,149.474437 298.685655,143.296634 297.300941,150.198479 C201.303982,155.788908 130.207772,158.670953 75.4121225,155.848439 C75.7144601,153.360727 75.9935641,151.345975 76.61917,146.52921 C119.784209,148.962125 209.38933,147.598989 299.940333,137.901453 Z" id="Stripe_2" fill="#DEFF3C"></path>
                <path d="M78.9454924,126.854439 C79.2371177,123.89085 79.7218919,120.730308 80.0933972,117.968321 C88.0954981,118.872134 94.0428786,118.401426 102.943898,118.955082 C104.612174,119.058851 108.292387,85.7879119 113.984537,19.1422646 L124.077153,19.1422646 C118.710705,86.1448165 116.777906,119.676615 118.278756,119.737659 C146.526365,120.886581 256.176317,116.451915 300.414821,102.952946 C301.280322,107.836428 302.124543,110.583821 301.758533,117.309745 C247.505738,122.925001 207.291155,126.538149 181.114783,128.14919 C157.940294,129.575478 96.5630414,128.14919 78.9454924,126.854439 Z" id="Stripe_1" fill="#DEFF3C"></path>
            </g>
            <g id="Title" transform="translate(241.000000, 310.000000)" fill="#DC395F">
                <path d="M27.6030116,18.1145093 C28.0021837,18.0887864 28.1665013,17.9018325 28.1407783,17.5026605 L27.8228424,12.5688939 C27.7971195,12.1697218 27.6101657,12.0054042 27.2109936,12.0311272 L24.7361269,12.1906096 C24.3369548,12.2163326 24.1726372,12.4032864 24.1983602,12.8024584 L24.3588715,15.2932921 L22.8100839,15.3930972 C22.3151106,15.4249936 22.0601736,15.2009242 22.0251903,14.6580502 L21.7792788,10.8419654 C21.7442955,10.2990914 22.0312036,10.0240718 22.7018127,9.98085721 L26.0229241,9.76684213 C26.4220962,9.74111916 26.5864138,9.55416535 26.5606908,9.1549933 L26.4361917,7.22300056 C26.4104687,6.8238285 26.2235149,6.6595109 25.8243428,6.68523387 L21.8326223,6.94246354 C19.1501861,7.11532187 17.971649,8.23342487 18.1146687,10.4528215 L18.4356913,15.4344887 C18.578711,17.6538854 19.8910075,18.611477 22.5734437,18.4386187 L27.6030116,18.1145093 Z M40.3716809,13.9317074 C40.534287,15.8769229 39.6869163,17.264333 35.700819,17.5975422 C31.7147217,17.9307514 30.6328213,16.7046145 30.4702152,14.759399 L30.0157179,9.32236232 C29.8531118,7.37714684 30.7150941,5.97245949 34.7011914,5.6392503 C38.6872887,5.3060411 39.7545775,6.5494552 39.9171836,8.49467068 L40.3716809,13.9317074 Z M34.0416095,13.8828471 C34.0775961,14.3133456 34.2955855,14.6162393 35.4435815,14.5202751 C36.6075219,14.422978 36.7562534,14.089429 36.7202668,13.6589305 L36.3617338,9.3698898 C36.32708,8.95533568 36.125035,8.6511091 34.9610946,8.74840619 C33.8130986,8.84437044 33.6484226,9.17925226 33.6830764,9.59380638 L34.0416095,13.8828471 Z M43.1399391,12.4989357 L47.4076234,12.0820242 C47.8057283,12.0431332 47.965338,11.8667792 47.9248914,11.4527501 L47.7164356,9.31890802 C47.675989,8.90487895 47.4852664,8.76274904 47.0871616,8.80164004 L42.8194773,9.21855154 C42.4213724,9.25744254 42.2633183,9.44972072 42.3022093,9.8478256 L42.5106651,11.9816677 C42.5511117,12.3956968 42.7418343,12.5378267 43.1399391,12.4989357 Z M59.5590164,14.9362194 C59.9568571,14.8947122 60.1136438,14.7013992 60.0721367,14.3035586 L59.5491467,9.29076683 C59.5076396,8.89292621 59.3143266,8.73613948 58.9164859,8.77764662 L56.6090104,9.01838802 C56.2111697,9.05989516 56.054383,9.25320817 56.0958901,9.65104879 L56.3648564,12.229056 L54.1846898,12.4565151 L53.3628485,4.57927087 C53.3213413,4.18143026 53.1280283,4.02464353 52.7301877,4.06615066 L50.2635759,4.32349492 C49.8657353,4.36500206 49.7089485,4.55831507 49.7504557,4.95615569 L50.8263207,15.2681845 C50.8678278,15.6660251 51.0611408,15.8228119 51.4589815,15.7813047 L59.5590164,14.9362194 Z M72.0721777,10.4372772 C72.2923908,12.3768158 71.4865315,13.7887417 67.512067,14.2399982 C63.5376026,14.6912547 62.4198211,13.4977369 62.199608,11.5581983 L61.5840941,6.13702879 C61.363881,4.19749014 62.1838332,2.76786137 66.1582976,2.31660489 C70.132762,1.86534842 71.2364507,3.07656906 71.4566638,5.0161077 L72.0721777,10.4372772 Z M65.7434408,10.5761345 C65.7921765,11.0053767 66.0190513,11.3016735 67.163697,11.1717117 C68.3242406,11.0399448 68.4630166,10.7021323 68.4142809,10.2728902 L67.9287289,5.99636644 C67.8817982,5.58302214 67.6708213,5.28492027 66.5102777,5.41668716 C65.3656319,5.54664902 65.2109581,5.88626649 65.2578888,6.29961079 L65.7434408,10.5761345 Z M83.9345901,11.9052236 C84.3313551,11.8544542 84.4835932,11.6575391 84.4328238,11.2607741 L83.8053139,6.35675863 C83.7545445,5.95999363 83.5576294,5.80775556 83.1608644,5.85852497 L80.7009213,6.17329529 C80.3041563,6.2240647 80.1519183,6.42097984 80.2026877,6.81774484 L80.5194888,9.29355846 L78.9800406,9.49054376 C78.488052,9.55349782 78.2195313,9.34590046 78.1504849,8.80630006 L77.6651294,5.01322663 C77.596083,4.47362623 77.865132,4.18111188 78.5316972,4.09581928 L81.832782,3.67341781 C82.229547,3.62264841 82.3817851,3.42573326 82.3310157,3.02896826 L82.0852917,1.10862565 C82.0345223,0.711860647 81.8376072,0.559622584 81.4408422,0.610391991 L77.4731922,1.11808606 C74.8069313,1.45925647 73.701025,2.64924603 73.9833029,4.85525944 L74.6169051,9.80688668 C74.899183,12.0129001 76.2690903,12.8860885 78.9353511,12.5449181 L83.9345901,11.9052236 Z M95.9064439,10.1056342 C96.3022957,10.0481763 96.4511889,9.84872002 96.393731,9.45286829 L95.6835512,4.56014098 C95.6260933,4.16428925 95.426637,4.01539597 95.0307853,4.07285389 L92.5765046,4.42909296 C92.1806529,4.48655088 92.0317596,4.68600712 92.0892175,5.08185885 L92.4477549,7.55197361 L90.9118502,7.77491032 C90.4209941,7.84615813 90.1490083,7.64312185 90.0708655,7.1047635 L89.5215679,3.32042101 C89.4434251,2.78206267 89.7074994,2.48504955 90.3725303,2.38852025 L93.6660166,1.9104704 C94.0618683,1.85301248 94.2107616,1.65355624 94.1533037,1.25770452 L93.8752074,-0.658217832 C93.8177495,-1.05406956 93.6182932,-1.20296283 93.2224415,-1.14550492 L89.2639243,-0.570925766 C86.6038007,-0.184808576 85.5181339,1.0236746 85.8375999,3.22461019 L86.5546746,8.16483972 C86.8741407,10.3657753 88.2585886,11.2157211 90.9187122,10.8296039 L95.9064439,10.1056342 Z M107.062249,8.16302111 C107.456776,8.09707768 107.601353,7.89447075 107.53541,7.49994386 L107.226794,5.65355803 C107.160851,5.25903114 106.958244,5.11445442 106.563717,5.18039784 L102.20814,5.90841327 L101.981295,4.55124077 L105.058605,4.03688205 C105.453132,3.97093863 105.597708,3.76833169 105.531765,3.3738048 L105.249527,1.68522972 C105.183584,1.29070284 104.980977,1.14612611 104.58645,1.21206954 L101.50914,1.72642826 L101.306034,0.511285451 L105.661611,-0.216729971 C106.056138,-0.282673397 106.200715,-0.485280335 106.134771,-0.879807222 L105.826156,-2.72619305 C105.760213,-3.12071994 105.557606,-3.26529666 105.163079,-3.19935324 L97.8406598,-1.97544325 C97.4461329,-1.90949983 97.3015562,-1.70689289 97.3674996,-1.312366 L99.0767532,8.91377091 C99.1426966,9.3082978 99.3453036,9.45287452 99.7398304,9.38693109 L107.062249,8.16302111 Z M112.12491,-1.70652126 L112.515145,0.303956504 L113.693159,0.0753033332 C114.242899,-0.0314014799 114.323287,-0.372977011 114.240972,-0.797062165 L114.137316,-1.33109532 C114.055001,-1.75518047 113.852665,-2.04187924 113.302925,-1.93517443 L112.12491,-1.70652126 Z M113.205766,6.88493533 L110.78691,7.35443651 C110.394239,7.43065423 110.187928,7.2914146 110.11171,6.89874316 L108.136146,-3.27930053 C108.059929,-3.67197196 108.199168,-3.87828319 108.59184,-3.95450092 L113.822223,-4.969721 C116.178252,-5.42702734 117.123786,-4.50225035 117.425609,-2.94727145 L117.565849,-2.224756 C117.736577,-1.34517198 117.638629,-0.674215755 117.033818,-0.263446543 C118.204808,-0.360347436 119.120319,0.325777984 119.376411,1.64515402 L120.022737,4.97500782 C120.098955,5.36767925 119.959715,5.57399049 119.567044,5.65020821 L117.132481,6.1227581 C116.739809,6.19897582 116.533498,6.05973619 116.45728,5.66706475 L115.990828,3.26391554 C115.899367,2.79270982 115.702665,2.61900776 115.262873,2.70437161 L113.063913,3.13119086 L113.66146,6.20973494 C113.737677,6.60240638 113.598438,6.80871761 113.205766,6.88493533 Z" id="go-logger-copy"></path>
            </g>
            <g id="Nose" transform="translate(93.403616, 171.523891) scale(-1, 1) translate(-93.403616, -171.523891) translate(59.903616, 133.023891)" fill-rule="nonzero">
                <ellipse id="Oval" fill="#9B8E7D" cx="38.81" cy="15.04" rx="18.33" ry="13.18"></ellipse>
                <path d="M55.64,15.04 C54.71,30.8 22.91,30.8 21.97,15.04 C21.48,6.76 32.53,3.55 38.8,3.36 C45.8,3.14 55.16,7.04 55.63,15.04 C55.74,16.96 58.74,16.97 58.63,15.04 C57.47,-4.62 20.13,-4.62 18.96,15.04 C18.37,25.04 30.89,29.48 38.79,29.72 C47.64,29.99 58.05,24.72 58.62,15.04 C58.75,13.09 55.75,13.09 55.64,15.04 Z" id="Shape" fill="#000000"></path>
                <path d="M25.34,46.09 L25.34,70.84 C25.34,70.84 23.96,74.28 33.61,74.77 C43.26,75.26 44.36,74.77 44.36,74.77 C44.36,74.77 49.36,76.41 51.25,68.38 C53.14,60.35 58.14,45.27 58.14,45.27 L25.34,46.09 Z" id="Shape" fill="#FFFFFF"></path>
                <path d="M23.83,46.09 L23.83,68.09 C23.83,70.09 23.42,70.77 23.96,72.43 C25.11,75.96 30.71,76.13 33.6,76.35 C36.97,76.6 41.37,77.24 44.73,76.35 C43.16,76.79 45.66,76.53 46.22,76.46 C47.788239,76.1909103 49.2077077,75.3676184 50.22,74.14 C53.69,70.42 54.22,62.79 55.67,58.06 C56.9033333,53.9533333 58.19,49.8633333 59.53,45.79 C59.6508202,45.3381124 59.5553944,44.8557447 59.2716166,44.4838979 C58.9878388,44.1120511 58.5477526,43.8927136 58.08,43.89 L25.27,44.71 C23.34,44.71 23.33,47.71 25.27,47.71 L58.08,46.89 L56.63,44.99 C54.12,52.62 51.63,60.3 49.74,68.1 C49.17,70.43 48.03,73.48 45.2,73.53 C44.74,73.53 44.34,73.29 43.88,73.45 C41.51,74.31 37.78,73.57 35.36,73.45 C33.19,73.37 26.77,73.5 26.77,70.88 L26.77,46.09 C26.6280423,45.3909028 26.0133645,44.8884962 25.3,44.8884962 C24.5866355,44.8884962 23.9719577,45.3909028 23.83,46.09 Z" id="Shape" fill="#000000"></path>
                <path d="M37.66,24.71 C37.66,24.71 29.26,20.71 20.59,22.92 C11.92,25.13 1.76,34.09 2.59,42.75 C3.42,51.41 12.26,57.25 17.59,57.42 C19.59,57.48 24.31,59.25 35.33,59.25 C45.18,59.25 46.83,58.32 52.66,58.08 C60.13,57.78 65.42,52.08 65.26,41.58 C65.1,31.08 57.93,25.75 50.26,26.25 C45.9984714,26.6263168 41.7054482,26.101614 37.66,24.71 L37.66,24.71 Z" id="Shape" fill="#F4D5B8"></path>
                <path d="M38.42,23.42 C24.64,17.17 4.23,23.54 1.2,39.88 C-0.13,47.03 5.34,53.61 11.1,56.96 C15.85,59.73 23.2,60.04 28.56,60.51 C37.02,61.25 45.36,60.16 53.77,59.51 C60.96,58.95 65.19,52.99 66.43,46.39 C67.79,39.11 65.7,31.51 59.57,27.12 C53.44,22.73 44.93,25.97 38.07,23.27 C36.27,22.56 35.49,25.46 37.27,26.16 C41.74,27.92 46.7,27.85 51.41,27.73 C60.02,27.49 63.82,35.73 63.75,43.13 C63.67,50.79 59.26,56.26 51.56,56.65 C45.49,56.95 39.56,57.8 33.46,57.74 C22.97,57.64 8.59,56.58 4.56,45 C1.72,36.84 10.04,29.58 16.33,26.15 C22.62,22.72 30.6,23.15 36.92,26.01 C38.65,26.8 40.18,24.22 38.42,23.42 Z" id="Shape" fill="#000000"></path>
            </g>
            <g id="Hand_2" transform="translate(218.959057, 295.989741) scale(-1, 1) rotate(-37.000000) translate(-218.959057, -295.989741) translate(201.459057, 272.489741)" stroke="#000000" stroke-width="3" fill="#F4D5B8" fill-rule="nonzero">
                <path d="M8.08,5.09 C8.08,5.09 6.13,15.48 8.08,25.22 C10.03,34.96 15.87,49.22 27.56,46.65 C39.25,44.08 32.75,26.85 32.75,26.85 C32.75,26.85 29.18,12.85 31.13,3.48" id="Shape"></path>
            </g>
            <g id="Chainsaw" transform="translate(171.500000, 353.500000) rotate(9.000000) translate(-171.500000, -353.500000) translate(7.000000, 298.000000)">
                <path d="M250,55.9994278 C305.921261,70.2344974 332.154034,88.2096201 328.698318,109.924796 C305.161583,110.025059 277.598308,110.025068 246.008492,109.924823 C244.829882,110.608545 243.460655,111 242,111 L171,111 C166.581722,111 163,107.418278 163,103 L163,42 L163,42 C163,37.581722 166.581722,34 171,34 L171,34 L242,34 C246.418278,34 250,37.581722 250,42 L250,55.9994278 Z M261,71 L261,100.95898 C283.020446,101.013673 300.579575,101.013673 313.677387,100.95898 C316.649149,90.9863266 299.09002,81 261,71 Z" id="Combined-Shape" fill="#ED6D4A"></path>
                <g id="Rectangle-2">
                    <use fill="#A7A7A7" fill-rule="evenodd" xlink:href="#path-1"></use>
                    <path stroke="#272525" stroke-width="3" d="M1.50556539,79.6393297 C1.51759277,79.8088032 1.52655049,80.0061495 1.53707838,80.2978213 C1.7151996,85.2326125 2.44359403,88.401654 5.29518378,92.2354161 C9.11622342,97.3725353 15.9303992,101.31658 26.5671003,103.588194 C44.634579,107.446753 84.9997224,107.475423 147.5,103.644658 L147.5,54.99761 C84.5067635,50.3076695 44.1518573,50.3419268 26.6436567,55.0540817 C17.2285329,57.5880669 10.7572486,61.3670599 6.69502152,66.0512471 C4.49325748,68.5901192 3.09721413,71.2806081 2.31501641,74.078964 C2.01869241,75.1390796 1.82264779,76.1713245 1.69842201,77.214033 C1.65052651,77.6160513 1.61475775,78.005831 1.58497457,78.4236348 C1.56755333,78.668023 1.52397526,79.3897294 1.52558802,79.3648897 C1.51876746,79.4699396 1.51232804,79.5592061 1.50556539,79.6393297 Z"></path>
                </g>
                <g id="Rectangle-2-Copy">
                    <use fill="#D8D8D8" fill-rule="evenodd" xlink:href="#path-2"></use>
                    <path stroke="#979797" stroke-width="1" d="M129.579567,99.9039068 L129.579567,59.1483504 C76.12061,55.3617548 42.2187247,55.4084691 27.9495289,59.2726054 C20.2374417,61.3610591 14.9025201,64.4957053 11.532858,68.405296 C9.68821171,70.5455141 8.51499122,72.8205426 7.85756085,75.1870672 C7.60849097,76.0836337 7.44382457,76.9560178 7.33963702,77.8359352 C7.29962186,78.1738836 7.26980441,78.5008182 7.24506293,78.8500405 C7.23070285,79.0527308 7.1954063,79.6408963 7.19692773,79.6173185 C7.18842418,79.749099 7.18084405,79.8464033 7.17284545,79.8334611 C7.1862059,79.983372 7.1946148,80.1522269 7.20514596,80.445792 C7.35337312,84.5777488 7.96837635,87.2699877 10.372148,90.5216558 C13.5600556,94.8340527 19.1992909,98.1182071 27.9238787,99.9929745 C42.6262222,103.152261 76.5313147,103.125979 129.579567,99.9039068 Z"></path>
                </g>
                <circle id="Oval-4" stroke="#979797" fill="#A7A7A7" cx="26.5" cy="80.5" r="10.5"></circle>
                <g id="Oval-2">
                    <use fill="#F17D52" fill-rule="evenodd" xlink:href="#path-3"></use>
                    <path stroke="#222121" stroke-width="2" d="M154.597456,111.872604 L154.594399,111.872609 C136.021193,111.872609 121,95.5417177 121,75.4363043 C121,55.330891 136.021193,39 154.594399,39 C166.097948,39 186.841877,43.5081913 202.764879,50.4922598 C224.469062,60.0120413 236.981709,73.1974839 235.940628,89.7937926 L235.918403,89.9497924 C233.358738,101.375605 228.923596,106.890099 219.805138,109.570204 C212.059658,111.846762 204.520742,112.129865 175.259042,111.932956 C166.347915,111.872991 160.982205,111.853084 154.597456,111.872604 Z"></path>
                </g>
                <path d="M169.602398,112.397716 C164.106949,112.36762 159.394616,112.35794 154.594399,112.372609 C135.735285,112.372609 120.5,95.8089591 120.5,75.4363043 C120.5,55.0636496 135.735285,38.5 154.594399,38.5 C156.61707,38.5 159.139085,38.6674677 161.985574,38.9930781 C163.253123,35.184662 166.845194,32.5 171,32.5 L242,32.5 C247.246705,32.5 251.5,36.7532949 251.5,42 L251.5,54.8349691 C307.351221,69.2053987 333.787748,87.487987 330.179678,110.160537 L329.979352,111.419353 L328.704708,111.424782 C305.260256,111.524652 277.822526,111.52507 246.391277,111.426041 C245.048315,112.127242 243.549865,112.5 242,112.5 L171,112.5 C170.529405,112.5 170.062633,112.465667 169.602398,112.397716 Z M262.5,72.9491776 L262.5,99.4626336 C283.150713,99.5120458 299.803305,99.5124511 312.457196,99.4638561 C313.363704,91.2528105 296.840962,82.1321904 262.5,72.9491776 Z" id="Outline" stroke="#272525" stroke-width="3"></path>
                <path d="M196.320132,34.3281943 L190.199505,34.3281943 C190.146787,31.4255222 190.120427,29.9589456 190.120427,29.9284646 C190.120427,18.1001829 181.712779,9.11942792 169.835258,9.11942792 C157.957736,9.11942792 149.550088,18.1001829 149.550088,29.9284646 C149.550088,30.0831213 149.535205,45.1754541 149.550088,78.4051336 C148.202199,79.3348289 146.732108,79.7899292 145.139813,79.7704344 C143.547519,79.7509397 142.171857,79.2927154 141.012827,78.3957616 C140.991519,44.5323704 141.00319,29.0930696 141.00319,28.8781884 C141.00319,12.9292054 153.986218,-5.68434189e-14 170.001595,-5.68434189e-14 C186.016972,-5.68434189e-14 199,12.9292054 199,28.8781884 C199,28.948103 199,30.7647716 199,34.3281943 L196.320132,34.3281943 Z M190.199505,80 C190.173151,79.9999881 190.146792,79.9999763 190.120427,79.9999644" id="Handle" stroke="#000000" fill="#282525"></path>
                <circle id="Oval-6" fill="#735245" cx="234.290188" cy="47.1278872" r="4.5"></circle>
                <g id="Vents" transform="translate(179.000000, 73.000000)" fill="#735245">
                    <rect id="Rectangle-4" x="0" y="0" width="39" height="4"></rect>
                    <rect id="Rectangle-4-Copy" x="0" y="6" width="39" height="4"></rect>
                    <rect id="Rectangle-4-Copy-2" x="0" y="12" width="39" height="4"></rect>
                    <rect id="Rectangle-4-Copy-3" x="0" y="18" width="39" height="4"></rect>
                </g>
                <g id="Credit" transform="translate(12.488903, 93.974878)" fill="#A7A7A7">
                    <path d="M22.6029277,6.83119449 C22.8021486,6.84883058 22.8975656,6.76893326 22.9152017,6.56971236 L22.9991495,5.62142086 C23.0167856,5.42219995 22.9368883,5.32678288 22.7376674,5.30914679 L21.1359313,5.16735265 C20.8012402,5.13772403 20.6604139,5.00478806 20.6836936,4.74181647 L20.8515891,2.84523346 C20.8755742,2.57429303 21.0382692,2.46019508 21.3729603,2.48982371 L22.9746964,2.63161785 C23.1739173,2.64925393 23.2693343,2.56935661 23.2869704,2.37013571 L23.3723291,1.40590654 C23.3899652,1.20668563 23.3100679,1.11126856 23.110847,1.09363247 L21.1664509,0.921504263 C19.8276865,0.80298976 19.1602634,1.26593952 19.0615013,2.38157658 L18.8421084,4.85988462 C18.7440518,5.96755284 19.3197672,6.54055178 20.6585316,6.65906629 L22.6029277,6.83119449 Z M27.6928931,7.22068635 C27.8922618,7.23656548 27.9869708,7.1558301 28.0028499,6.95646147 L28.0784346,6.00746676 C28.0943138,5.80809812 28.0135784,5.7133891 27.8142097,5.69750997 L26.2112859,5.56984172 C25.8763466,5.54316477 25.7343539,5.41147545 25.7553144,5.14830885 L25.9064837,3.25031943 C25.9280794,2.97917809 26.0897622,2.86365031 26.4247015,2.89032725 L28.0276253,3.0179955 C28.2269939,3.03387463 28.321703,2.95313925 28.3375821,2.75377062 L28.4144371,1.78882642 C28.4303163,1.58945778 28.3495809,1.49474876 28.1502122,1.47886963 L26.2043743,1.32388927 C24.8646171,1.21718148 24.2013012,1.68599703 24.1123781,2.80246139 L23.9148416,5.28260723 C23.8265536,6.39109685 24.407298,6.9589982 25.7470553,7.06570599 L27.6928931,7.22068635 Z M29.4933525,5.81344599 C29.2938334,5.799585 29.1999461,5.88127457 29.1860851,6.08079368 L29.1212157,7.01454309 C29.1073547,7.21406219 29.1890443,7.30794943 29.3885634,7.32181042 L31.9104849,7.49701331 C32.9320227,7.56798157 33.4936828,7.10178643 33.5507901,6.27976772 L33.606234,5.48169131 C33.6550247,4.77938406 33.4331252,4.39508128 32.6810515,4.25462112 C33.0427395,4.12738194 33.1835196,3.83242949 33.211796,3.42541052 L33.2439535,2.9625262 C33.2927442,2.26021895 32.9002579,1.79189163 32.0143931,1.73034884 L29.7877598,1.57566021 C29.5882407,1.56179923 29.4943535,1.6434888 29.4804925,1.8430079 L29.4145142,2.79271884 C29.4006532,2.99223794 29.4823428,3.08612518 29.6818619,3.09998617 L31.166284,3.20311192 C31.4216685,3.22085399 31.4617909,3.33591132 31.4529199,3.46360355 L31.4446033,3.58331501 C31.4357323,3.71100724 31.3800855,3.8194113 31.1247011,3.80166924 L30.2867208,3.74345309 C30.0872017,3.7295921 29.9933145,3.81128167 29.9794535,4.01080077 L29.9201285,4.86474254 C29.9062675,5.06426164 29.9879571,5.15814888 30.1874762,5.17200987 L31.5442061,5.26626459 C31.7995905,5.28400666 31.8402674,5.39108323 31.8313964,5.51877545 L31.8164265,5.73425609 C31.8075555,5.86194831 31.7519087,5.97035238 31.4965243,5.95261031 L29.4933525,5.81344599 Z M41.8830423,6.52675081 C41.8310121,7.50136297 41.3167235,8.13084154 39.3195674,8.02422228 C37.3224114,7.91760301 36.8700764,7.23652073 36.9221066,6.26190857 L37.0675353,3.5377877 C37.1195655,2.56317554 37.6422692,1.92613483 39.6394252,2.03275409 C41.6365813,2.13937335 42.0805011,2.82801779 42.028471,3.80262994 L41.8830423,6.52675081 Z M38.7508775,6.07112838 C38.7393626,6.28682124 38.8266966,6.45171145 39.4018775,6.4824178 C39.9850471,6.51355062 40.0814515,6.35846938 40.0929664,6.14277653 L40.2076887,3.99383661 C40.2187771,3.78613238 40.1394318,3.62166864 39.5562622,3.59053582 C38.9810813,3.55982947 38.8766882,3.71448423 38.8655998,3.92218846 L38.7508775,6.07112838 Z M45.1857769,3.81068755 L45.1463578,4.83392854 L45.745913,4.85702567 C46.0257055,4.86780433 46.1038114,4.71069458 46.1121263,4.49485469 L46.122597,4.2230563 C46.130912,4.0072164 46.0651246,3.84456334 45.7853321,3.83378468 L45.1857769,3.81068755 Z M44.731691,8.11639887 L43.5006042,8.06897276 C43.3007524,8.06127372 43.2162052,7.96995137 43.2239043,7.77009961 L43.4234635,2.58994207 C43.4311625,2.39009032 43.5224849,2.30554312 43.7223366,2.31324217 L46.384362,2.41579343 C47.5834726,2.46198769 47.9382525,3.02005867 47.9077643,3.81147162 L47.893598,4.17919886 C47.8763522,4.62686679 47.7521167,4.94231814 47.4108224,5.07327701 C47.9919259,5.15971078 48.3593193,5.59817867 48.3334505,6.26968057 L48.2681626,7.96442347 C48.2604636,8.16427523 48.1691412,8.24882242 47.9692894,8.24112338 L46.7302086,8.19338931 C46.5303568,8.18569026 46.4458096,8.09436791 46.4535086,7.89451615 L46.5006268,6.6714234 C46.5098656,6.43160129 46.4339284,6.32459876 46.2100945,6.31597583 L45.0909246,6.27286119 L45.0305641,7.83969896 C45.0228651,8.03955072 44.9315427,8.12409792 44.731691,8.11639887 Z M49.7037118,8.24371242 L53.1109115,8.31756799 C53.3108645,8.32190224 53.4007509,8.23582997 53.4050852,8.03587694 L53.4257162,7.08410052 C53.4300504,6.88414749 53.3439782,6.79426109 53.1440251,6.78992684 L52.3682074,6.77310996 L52.4264596,4.08574123 L53.2022774,4.10255811 C53.4022304,4.10689236 53.4921168,4.02082009 53.4964511,3.82086706 L53.5174288,2.8530944 C53.5217631,2.65314137 53.4356908,2.56325497 53.2357378,2.55892072 L49.8285382,2.48506514 C49.6285851,2.4807309 49.5386987,2.56680316 49.5343645,2.76675619 L49.5133867,3.73452886 C49.5090525,3.93448189 49.5951247,4.02436829 49.7950778,4.02870254 L50.5868918,4.04586616 L50.5286395,6.73323488 L49.7368255,6.71607126 C49.5368725,6.71173702 49.4469861,6.79780928 49.4426518,6.99776231 L49.4220208,7.94953874 C49.4176865,8.14949177 49.5037588,8.23937817 49.7037118,8.24371242 Z M59.179184,8.33136286 C59.3791803,8.33256733 59.4677087,8.2450989 59.4689132,8.04510252 L59.4838005,5.57314735 C59.4850049,5.37315098 59.3975365,5.28462261 59.1975401,5.28341813 L57.9575626,5.2759504 C57.7575662,5.27474593 57.6690379,5.36221436 57.6678334,5.56221073 L57.6603175,6.8101881 L56.8843316,6.80551475 C56.6363361,6.8040212 56.5170609,6.68330069 56.518699,6.41130562 L56.5302138,4.4993403 C56.5318518,4.22734523 56.68462,4.10026295 57.0206139,4.10228647 L58.6845837,4.11230768 C58.8845801,4.11351216 58.9731084,4.02604372 58.9743129,3.82604735 L58.9801426,2.8580649 C58.981347,2.65806853 58.8938786,2.56954016 58.6938822,2.56833568 L56.6939185,2.55629095 C55.3499429,2.54819689 54.7228225,3.06442951 54.7161257,4.17640934 L54.7010938,6.67236408 C54.694397,7.78434391 55.315254,8.30809244 56.6592297,8.3161865 L59.179184,8.33136286 Z M64.7577104,3.88606856 L64.7750673,4.90992145 L65.3749811,4.89975138 C65.6549409,4.89500535 65.7242185,4.73380793 65.7205573,4.51783896 L65.7159469,4.24587803 C65.7122856,4.02990907 65.637584,3.87115246 65.3576242,3.87589849 L64.7577104,3.88606856 Z M64.5429762,8.21032956 L63.3111532,8.2312121 C63.111182,8.23460212 63.021703,8.14810637 63.018313,7.94813511 L62.9304436,2.76487986 C62.9270536,2.56490859 63.0135493,2.47542962 63.2135206,2.4720396 L65.8771379,2.42688451 C67.0769655,2.40654437 67.4621323,2.94409298 67.4755568,3.7359792 L67.4817945,4.10392633 C67.4893881,4.55186197 67.3828282,4.87371441 67.0493173,5.02338896 C67.6343182,5.0774809 68.0254499,5.49491114 68.0368404,6.1668146 L68.0655878,7.86257095 C68.0689778,8.06254222 67.982482,8.15202118 67.7825108,8.15541121 L66.5426889,8.17642934 C66.3427177,8.17981936 66.2532387,8.09332362 66.2498487,7.89335235 L66.2291017,6.66952819 C66.2250337,6.42956267 66.1432824,6.32693362 65.9193146,6.33073045 L64.7994755,6.34971457 L64.8260532,7.91748931 C64.8294433,8.11746057 64.7429475,8.20693954 64.5429762,8.21032956 Z M71.1502268,8.04549657 C71.350158,8.04025089 71.4358196,7.94997306 71.4305739,7.75004186 L71.387979,6.12660056 C71.3825235,5.91867212 71.2924555,5.84100774 71.0925243,5.84625343 L69.4770802,5.88863857 C69.277149,5.89388426 69.1912776,5.97616484 69.1967331,6.18409328 L69.2393281,7.80753458 C69.2445737,8.00746578 69.3348516,8.0931274 69.5347828,8.08788172 L71.1502268,8.04549657 Z M76.4582882,7.87581888 C76.6581837,7.86935326 76.7432928,7.77855438 76.7368272,7.57865892 L76.6858781,6.00348268 L78.0771505,5.95848195 C78.277046,5.95201633 78.3621551,5.86121746 78.3556895,5.66132199 L78.3246545,4.70182378 C78.3181889,4.50192831 78.22739,4.41681918 78.0274945,4.4232848 L76.6362221,4.46828553 L76.6093251,3.63672041 L78.6482588,3.57077107 C78.8481543,3.56430545 78.9332634,3.47350657 78.9267978,3.27361111 L78.8960215,2.32210871 C78.8895558,2.12221325 78.798757,2.03710412 78.5988615,2.04356974 L75.0327265,2.15891642 C74.832831,2.16538204 74.7477219,2.25618092 74.7541875,2.45607638 L74.9217764,7.63736676 C74.928242,7.83726222 75.0190409,7.92237135 75.2189363,7.91590573 L76.4582882,7.87581888 Z M81.9180468,3.35304655 L81.9559365,4.37634532 L82.5555256,4.35414432 C82.8353339,4.34378385 82.9013643,4.18122929 82.893372,3.96537721 L82.8833075,3.69356348 C82.8753152,3.47771139 82.7974442,3.32048508 82.5176359,3.33084555 L81.9180468,3.35304655 Z M81.7900913,7.68074471 L80.5589349,7.72633078 C80.3590719,7.73373111 80.267876,7.64904752 80.2604757,7.44918448 L80.068659,2.26873447 C80.0612587,2.06887143 80.1459422,1.97767554 80.3458053,1.97027521 L83.007981,1.87170274 C84.2071592,1.82730073 84.6030307,2.35701558 84.632336,3.14847322 L84.6459526,3.51622121 C84.6625294,3.96391442 84.5624466,4.28783948 84.2320049,4.44417343 C84.8179731,4.48652062 85.2173989,4.89602163 85.242264,5.56756144 L85.3050188,7.26240003 C85.3124192,7.46226307 85.2277356,7.55345895 85.0278725,7.56085929 L83.7887217,7.60674137 C83.5888586,7.6141417 83.4976627,7.52945811 83.4902624,7.32959507 L83.4449724,6.10643326 C83.436092,5.86659761 83.3522986,5.76562896 83.128452,5.77391734 L82.0092189,5.81535921 L82.0672376,7.38228545 C82.0746379,7.58214849 81.9899543,7.67334438 81.7900913,7.68074471 Z M90.5939339,7.31944308 C90.7937616,7.31114162 90.8780331,7.21956482 90.8697316,7.01973718 L90.8308808,6.08454382 C90.8225793,5.88471618 90.7310025,5.80044466 90.5311749,5.80874612 L88.3250778,5.9003942 L88.2965207,5.21298712 L89.8551763,5.14823575 C90.055004,5.1399343 90.1392755,5.04835749 90.130974,4.84852985 L90.0954438,3.99326755 C90.0871424,3.79343991 89.9955655,3.70916839 89.7957379,3.71746985 L88.2370823,3.78222121 L88.2115138,3.16675208 L90.417611,3.075104 C90.6174386,3.06680254 90.7017101,2.97522574 90.6934087,2.7753981 L90.6545579,1.84020474 C90.6462564,1.6403771 90.5546796,1.55610558 90.354852,1.56440704 L86.646051,1.71848208 C86.4462233,1.72678353 86.3619518,1.81836034 86.3702533,2.01818798 L86.585427,7.19772041 C86.5937285,7.39754805 86.6853053,7.48181957 86.8851329,7.47351812 L90.5939339,7.31944308 Z M93.696673,7.17417608 C93.8964719,7.16521118 93.9804389,7.07335507 93.971474,6.8735561 L93.8531373,4.23620963 L95.2939917,5.8292252 L95.338099,6.81223616 C95.3470639,7.01203514 95.43892,7.09600213 95.638719,7.08703723 L96.8375129,7.03324781 C97.0373118,7.02428291 97.1212788,6.9324268 97.1123139,6.73262782 L96.8799436,1.55383839 C96.8709787,1.35403941 96.7791226,1.27007242 96.5793236,1.27903732 L95.3805298,1.33282674 C95.1807308,1.34179164 95.0967638,1.43364775 95.1057287,1.63344672 L95.1821097,3.33573399 L93.5520613,1.63108674 C93.4090261,1.47734369 93.2786446,1.42713752 93.0708536,1.43646102 L92.2396899,1.47375501 C92.0398909,1.48271992 91.9559239,1.57457602 91.9648888,1.774375 L92.1972591,6.95316444 C92.206224,7.15296341 92.2980801,7.2369304 92.4978791,7.2279655 L93.696673,7.17417608 Z M102.452861,6.75655973 C102.65263,6.74695258 102.736301,6.65482702 102.726694,6.4550579 L102.680964,5.50415687 C102.671357,5.30438774 102.579231,5.22071647 102.379462,5.23032362 L100.773318,5.30756509 C100.437706,5.3237051 100.280117,5.21114506 100.267436,4.94744982 L100.175976,3.04564776 C100.16291,2.77396175 100.308586,2.63880808 100.644198,2.62266807 L102.250342,2.5454266 C102.450111,2.53581945 102.533782,2.4436939 102.524175,2.24392477 L102.477676,1.27704221 C102.468069,1.07727309 102.375944,0.993601821 102.176175,1.00320897 L100.226428,1.09697473 C98.8839795,1.16153477 98.2856784,1.71090879 98.3394784,2.82961589 L98.4589914,5.31474378 C98.5124071,6.42546011 99.1606654,6.91488553 100.503114,6.85032549 L102.452861,6.75655973 Z M105.559645,6.59581097 C105.759391,6.58573687 105.842847,6.49341597 105.832773,6.29366985 L105.743315,4.51992431 L107.077619,4.45262932 L107.167077,6.22637487 C107.177151,6.42612099 107.269472,6.50957668 107.469218,6.49950258 L108.707644,6.43704316 C108.90739,6.42696907 108.990846,6.33464817 108.980772,6.13490205 L108.719651,0.957482613 C108.709577,0.757736493 108.617256,0.674280804 108.41751,0.684354903 L107.179084,0.746814319 C106.979338,0.756888418 106.895882,0.849209314 106.905956,1.04895543 L106.993399,2.78275176 L105.659095,2.85004674 L105.571652,1.11625042 C105.561578,0.916504297 105.469257,0.833048608 105.269511,0.843122708 L104.031085,0.905582123 C103.831339,0.915656222 103.747883,1.00797712 103.757957,1.20772324 L104.019078,6.38514267 C104.029152,6.58488879 104.121473,6.66834448 104.321219,6.65827038 L105.559645,6.59581097 Z" id="final"></path>
                </g>
            </g>
            <g id="Hard_hat" transform="translate(58.000000, 0.000000)">
                <path d="M155.639175,101.628369 C206.755895,115.256605 230.716682,138.71211 289.906144,160.270013 C291.743917,155.987563 286.647033,153.94935 287.360761,149.60382 C288.329641,143.704797 291.743917,136.166814 291.743917,127 C291.743917,56.8608653 234.88408,8.52651283e-14 164.743917,8.52651283e-14 C132.426952,8.52651283e-14 87.0809411,10.9523345 74.4408871,18.9140689 C61.8008332,26.8758034 49.176044,55.7301051 39.9497027,67.2850821 C33.8830859,74.8828518 7.57657698,75.3823613 1.86216459,80.1350063 C-12.7323145,92.2731533 86.724945,83.255136 155.639175,101.628369 Z" id="Oval-5" stroke="#272525" stroke-width="3" fill="#FFDA4C"></path>
                <path d="M167.043308,0.537517422 C136.194056,9.32622772 116.61904,15.3555564 108.318257,18.6255035 C95.867083,23.5304241 91.3968396,29.0864758 88.4822602,32.4736639 C81.3182523,40.3130964 73.4908322,54.1552084 65,74" id="Line" stroke="#272525" stroke-width="2" stroke-linecap="square"></path>
                <path d="M167.710562,1.0324059 C140.416475,10.1578572 122.61904,16.3555564 114.318257,19.6255035 C101.867083,24.5304241 97.3968396,30.0864758 94.4822602,33.4736639 C87.3182523,41.3130964 79.4908322,55.1552084 71,75" id="Line-Copy-2" stroke="#272525" stroke-width="2" stroke-linecap="square"></path>
                <path d="M37.8320208,69.0752232 C47.2218685,71.2007486 56.7916611,73.1674698 66.5413987,74.9753867 C85.3313232,78.4596469 115.569418,81.9319832 146.310711,88.2844334 C192.926669,101.594811 239.421907,121.917727 285.796425,149.253181" id="Line-2" stroke="#343333" stroke-width="2" stroke-linecap="square"></path>
                <g id="InVision-icon-pink-Copy" transform="translate(268.848613, 121.877242) rotate(28.000000) translate(-268.848613, -121.877242) translate(257.348613, 111.877242)">
                    <path d="M2.91625055,0.0976361024 C1.76476949,0.0976361024 0.831265705,1.03113989 0.831265705,2.18262095 L-8.52651283e-13,17.9150152 C-8.52651283e-13,19.0664962 0.933503788,20 2.08498485,20 L20.9150152,20 C22.0664962,20 23,19.0664962 23,17.9150152 L19.9326744,2.68607369 C19.9326744,1.53459262 18.9991706,0.601088837 17.8476896,0.601088837 L2.91625055,0.0976361024 Z" id="Fill-1" fill="#DC395F"></path>
                    <path d="M9.00763706,5.56682786 C9.00763706,4.76735183 8.38471076,4.15707358 7.64102946,4.15707358 C6.89734817,4.15707358 6.2745066,4.76735183 6.2745066,5.56682786 C6.2745066,6.36683635 6.89734817,6.97729208 7.64102946,6.97729208 C8.38471076,6.97729208 9.00763706,6.36683635 9.00763706,5.56682786 Z" id="Fill-4" fill="#FFFFFE" transform="translate(7.641072, 5.567183) rotate(-5.000000) translate(-7.641072, -5.567183) "></path>
                    <path d="M5.06974656,13.9310414 C5.06974656,15.0446634 5.6867844,15.7839748 6.99810161,15.7839748 C8.08566231,15.7839748 8.96727271,15.151848 9.60203545,14.1313262 L9.2144456,15.6537936 L11.3739561,15.6537936 L12.6081944,10.8090802 C12.9166727,9.58238514 13.5144408,8.94572276 14.4208498,8.94572276 C15.1343176,8.94572276 15.5778465,9.37995181 15.5778465,10.0968236 C15.5778465,10.3045883 15.5584955,10.5308139 15.4814166,10.7762166 L14.8449464,13.0030628 C14.7485164,13.3239005 14.7101396,13.644977 14.7101396,13.9466377 C14.7101396,15.0038425 15.3462846,15.7771315 16.6768715,15.7771315 C17.8145985,15.7771315 18.7208449,15.0603393 19.2222644,13.3429184 L18.3739085,13.0223194 C17.9495679,14.1729428 17.5831992,14.3809463 17.2939907,14.3809463 C17.0047008,14.3809463 16.8503804,14.1923586 16.8503804,13.8151037 C16.8503804,13.6452953 16.8890824,13.4567872 16.9468103,13.2298454 L17.5640108,11.0602917 C17.7181686,10.5508663 17.7761404,10.0991312 17.7761404,9.68407924 C17.7761404,8.06111139 16.7733015,7.21413798 15.5584955,7.21413798 C14.4208498,7.21413798 13.2637717,8.21842692 12.6854359,9.27539308 L13.1095325,7.37821719 L9.81221371,7.37821719 L9.3493337,9.04924704 L10.8920503,9.04924704 L9.94214209,12.7715058 C9.19607025,14.3944737 7.82572425,14.4208123 7.65376022,14.3830947 C7.37138146,14.3207892 7.1907989,14.2158326 7.1907989,13.8567203 C7.1907989,13.6495126 7.22933835,13.3519102 7.3257683,12.9930366 L8.77213622,7.37821719 L5.10844863,7.37821719 L4.64556861,9.04924704 L6.16885284,9.04924704 L5.18544624,12.9811007 C5.10844863,13.3019384 5.06974656,13.6483986 5.06974656,13.9310414 Z" id="Fill-5" fill="#FFFFFE" transform="translate(11.933917, 11.499056) rotate(-5.000000) translate(-11.933917, -11.499056) "></path>
                </g>
            </g>
        </g>
    </g>
</svg>